<svg width="18" height="15" viewBox="0 0 18 15" fill="none" xmlns="http://www.w3.org/2000/svg">
<path d="M8.10181 0C6.94353 0 5.36159 0.704532 4.58716 1.56551L0.61853 5.97526C0.101817 6.54903 -0.139484 7.6231 0.0826564 8.36342L1.38139 12.6925C1.6029 13.432 2.4165 14.0374 3.18883 14.0374H16.1868C16.9627 14.0374 17.5906 13.4088 17.5906 12.6336V6.31678L16.9326 0.743496C16.8826 0.319482 16.5232 0 16.0962 0H8.10181ZM16.1868 6.31657H2.1992L5.63027 2.50461C6.14024 1.93841 7.34106 1.40359 8.10181 1.40359H15.2601C15.3642 1.40359 15.4526 1.47964 15.4682 1.58255L16.1868 6.31657Z" fill="white"/>
</svg>
